#!OML:ASF F:\twosubjects\two\Thursday\Session 1\Rory.ASF
:FULLY-SPECIFIED
:DEGREES
211
root 23.193 18.0623 -0.0264183 -141.499 -77.3607 151.043
lowerback 13.0169 0.0303226 -5.02572
upperback 6.69875 -0.98923 -2.76276
thorax -0.230168 -0.742298 0.0780676
lowerneck -3.50024 14.6409 8.37825
upperneck 1.26752 19.8856 -16.227
head 3.44794 9.66362 -5.00988
rclavicle -3.33958e-014 -2.5842e-014
rhumerus -43.2449 -8.21072 -81.0363
rradius 66.5471
rwrist 7.9171
rhand -17.2946 23.8117
rfingers 7.12502
rthumb 8.95111 -5.97837
lclavicle -3.33958e-014 -2.5842e-014
lhumerus -3.82878 0.532398 81.5174
lradius 94.3528
lwrist -35.9073
lhand -27.4862 47.8249
lfingers 7.12502
lthumb -0.889704 77.8028
rfemur -33.1172 -4.86789 9.64818
rtibia 43.2227
rfoot -14.2621 -17.2008
rtoes 0.525319
lfemur -19.1272 8.0359 -15.8908
ltibia 31.6665
lfoot -15.8111 16.0045
ltoes -4.35702
212
root 23.2006 18.048 -0.11257 -141.864 -77.3576 151.552
lowerback 13.2577 -0.0734336 -4.55123
upperback 6.65453 -1.08914 -2.77615
thorax -0.413759 -0.776235 -0.184388
lowerneck -3.79881 14.6198 8.46882
upperneck 1.59694 19.8807 -16.2304
head 3.6038 9.63414 -4.98891
rclavicle -1.0138e-014 -2.88238e-014
rhumerus -43.1163 -7.72042 -81.3952
rradius 66.6595
rwrist 8.1106
rhand -16.6396 23.9601
rfingers 7.12502
rthumb 9.58312 -5.80197
lclavicle -1.0138e-014 -2.88238e-014
lhumerus -4.0301 0.818877 81.2894
lradius 95.0276
lwrist -35.9936
lhand -27.7991 48.8518
lfingers 7.12502
lthumb -1.1919 78.8282
rfemur -33.3929 -4.86351 10.0756
rtibia 43.6361
rfoot -14.1373 -17.5845
rtoes -3.39536
lfemur -19.4857 7.77944 -15.5029
ltibia 32.1578
lfoot -15.9131 16.417
ltoes -3.20098
213
root 23.2087 18.0446 -0.207659 -143.239 -77.4263 152.93
lowerback 13.5465 -0.20966 -4.03812
upperback 6.72024 -1.22875 -2.72939
thorax -0.507194 -0.836423 -0.401058
lowerneck -3.66107 14.6391 8.56914
upperneck 1.36074 19.8884 -16.3251
head 3.5323 9.6531 -5.04625
rclavicle 1.82882e-014 1.59028e-015
rhumerus -42.7675 -7.0924 -81.901
rradius 66.7175
rwrist 8.18288
rhand -16.3211 23.9983
rfingers 7.12502
rthumb 9.89042 -5.7494
lclavicle 1.82882e-014 1.59028e-015
lhumerus -4.10634 1.48678 80.8895
lradius 95.7671
lwrist -36.1065
lhand -26.7324 47.6614
lfingers 7.12502
lthumb -0.161654 77.6411
rfemur -33.4685 -4.79381 10.7434
rtibia 44.1429
rfoot -14.516 -17.6503
rtoes -5.10674
lfemur -19.6771 7.57214 -14.8773
ltibia 32.715
lfoot -16.0241 16.9616
ltoes -1.44841
214
root 23.2209 18.016 -0.304806 -144.257 -77.4398 153.854
lowerback 13.975 -0.329836 -3.75426
upperback 6.80537 -1.38223 -2.63528
thorax -0.648583 -0.910762 -0.435281
lowerneck -3.5757 14.655 8.75405
upperneck 1.05957 19.8932 -16.6677
head 3.48646 9.66416 -5.18315
rclavicle 3.79679e-014 4.55217e-014
rhumerus -42.3723 -6.19893 -82.357
rradius 66.7078
rwrist 7.89182
rhand -16.5057 24.3336
rfingers 7.12502
rthumb 9.71231 -5.42248
lclavicle 3.79679e-014 4.55217e-014
lhumerus -4.21465 1.98353 80.4931
lradius 96.504
lwrist -35.9656
lhand -26.0312 47.1698
lfingers 7.12502
lthumb 0.515591 77.1489
rfemur -33.5831 -4.91483 11.3435
rtibia 44.7018
rfoot -14.7073 -17.4536
rtoes -7.18339
lfemur -19.8506 7.36069 -14.3295
ltibia 33.3492
lfoot -15.8562 17.6234
ltoes -2.93765
215
root 23.233 17.968 -0.395033 -144.628 -77.4755 154.267
lowerback 14.3544 -0.436732 -3.3695
upperback 6.81804 -1.49765 -2.58357
thorax -0.844746 -0.959762 -0.574062
lowerneck -3.84194 14.5946 8.78533
upperneck 0.972326 19.8009 -16.8978
head 3.52203 9.60239 -5.24542
rclavicle -1.23246e-014 2.46493e-014
rhumerus -42.2125 -5.65704 -82.606
rradius 66.9654
rwrist 7.89612
rhand -16.3462 24.9196
rfingers 7.12502
rthumb 9.86617 -4.82926
lclavicle -1.23246e-014 2.46493e-014
lhumerus -4.27262 2.22871 80.2174
lradius 97.1073
lwrist -35.7335
lhand -25.9664 46.8775
lfingers 7.12502
lthumb 0.578216 76.8565
rfemur -34.0033 -5.30781 11.8522
rtibia 45.3128
rfoot -14.8262 -17.0882
rtoes -9.01713
lfemur -20.3137 6.933 -13.8999
ltibia 34.1109
lfoot -15.8674 18.3288
ltoes -2.80097
216
root 23.239 17.9538 -0.489895 -145.254 -77.4753 155.07
lowerback 14.5243 -0.542672 -3.08751
upperback 6.83983 -1.60784 -2.50061
thorax -0.916577 -1.00971 -0.626629
lowerneck -4.23303 14.5535 8.8571
upperneck 1.04016 19.7396 -17.0045
head 3.61793 9.54688 -5.26025
rclavicle -2.5842e-014 4.57205e-015
rhumerus -41.978 -5.09233 -82.8312
rradius 67.3495
rwrist 7.98944
rhand -15.6049 25.1113
rfingers 7.12502
rthumb 10.5813 -4.60234
lclavicle -2.5842e-014 4.57205e-015
lhumerus -4.21407 2.85144 80.1006
lradius 97.6126
lwrist -35.6356
lhand -26.1035 46.2155
lfingers 7.12502
lthumb 0.445738 76.1948
rfemur -34.5053 -5.4973 12.4243
rtibia 45.9357
rfoot -15.0988 -17.0036
rtoes -10.2927
lfemur -20.8565 6.39194 -13.4663
ltibia 34.9575
lfoot -16.5916 18.9416
ltoes 2.23343
217
root 23.2483 17.929 -0.583461 -145.473 -77.513 155.489
lowerback 14.6553 -0.689503 -2.93258
upperback 6.86789 -1.7852 -2.41608
thorax -0.957034 -1.09624 -0.596647
lowerneck -4.53086 14.5624 8.94324
upperneck 1.06364 19.7378 -16.9913
head 3.6804 9.53126 -5.24462
rclavicle 1.21259e-014 3.57812e-015
rhumerus -41.7182 -4.32819 -83.1703
rradius 67.6816
rwrist 8.03256
rhand -15.8256 24.859
rfingers 7.12502
rthumb 10.3684 -4.86541
lclavicle 1.21259e-014 3.57812e-015
lhumerus -4.15393 3.74462 80.0081
lradius 98.367
lwrist -34.753
lhand -25.5454 45.2379
lfingers 7.12502
lthumb 0.984797 75.2154
rfemur -35.0644 -5.7669 13.0028
rtibia 46.6636
rfoot -15.2977 -17.2983
rtoes -12.6728
lfemur -21.5259 5.85884 -13.1211
ltibia 35.9644
lfoot -17.584 19.4749
ltoes 8.0373
218
root 23.2654 17.9 -0.66733 -145.827 -77.8205 156.055
lowerback 14.9411 -0.922363 -2.44855
upperback 6.86346 -2.03402 -2.28321
thorax -1.12325 -1.20947 -0.684943
lowerneck -4.77035 14.6065 9.12953
upperneck 1.01114 19.7873 -17.2177
head 3.75471 9.54031 -5.31113
rclavicle -2.68359e-014 -2.54444e-014
rhumerus -41.4263 -3.58036 -83.4005
rradius 67.8952
rwrist 8.01682
rhand -16.4523 24.8405
rfingers 7.12502
rthumb 9.76378 -4.9132
lclavicle -2.68359e-014 -2.54444e-014
lhumerus -3.98809 4.48191 80.0467
lradius 99.1209
lwrist -33.9232
lhand -25.1375 45.3987
lfingers 7.12502
lthumb 1.37881 75.374
rfemur -35.6352 -6.53721 13.8389
rtibia 47.3658
rfoot -15.5823 -17.3089
rtoes -14.7978
lfemur -22.3752 5.33663 -12.685
ltibia 37.0427
lfoot -18.1275 20.2383
ltoes 11.6431
219
root 23.2808 17.8629 -0.748048 -146.409 -78.0907 156.803
lowerback 15.2489 -1.10269 -2.03668
upperback 6.90248 -2.21946 -2.04375
thorax -1.25034 -1.29635 -0.629808
lowerneck -4.83709 14.6403 9.26873
upperneck 0.699788 19.8212 -17.794
head 3.75817 9.54978 -5.4946
rclavicle -1.07344e-014 -2.20651e-014
rhumerus -40.6319 -2.60661 -83.1866
rradius 67.746
rwrist 7.6173
rhand -16.1563 25.3342
rfingers 7.12502
rthumb 10.0494 -4.40586
lclavicle -1.07344e-014 -2.20651e-014
lhumerus -3.70301 4.91504 80.3345
lradius 99.4723
lwrist -35.2363
lhand -25.734 48.633
lfingers 7.12502
lthumb 0.802655 78.6112
rfemur -36.2496 -7.57375 14.6751
rtibia 48.0872
rfoot -16.0019 -16.6317
rtoes -14.2694
lfemur -23.2255 4.93905 -12.3002
ltibia 38.1885
lfoot -18.4042 21.0386
ltoes 13.4979
220
root 23.2883 17.8228 -0.83326 -146.14 -78.0753 156.609
lowerback 15.4738 -1.07729 -1.93712
upperback 7.02262 -2.18254 -1.88797
thorax -1.24002 -1.28297 -0.525224
lowerneck -4.82424 14.5345 9.07653
upperneck 0.171196 19.6325 -18.057
head 3.58582 9.47102 -5.58525
rclavicle 6.63941e-014 5.54609e-014
rhumerus -39.6087 -1.95893 -82.7633
rradius 67.4432
rwrist 7.1119
rhand -15.8123 26.0273
rfingers 7.12502
rthumb 10.3812 -3.69643
lclavicle 6.63941e-014 5.54609e-014
lhumerus -3.34261 5.35294 80.4703
lradius 100.151
lwrist -34.6361
lhand -24.8391 47.8508
lfingers 7.12502
lthumb 1.66696 77.824
rfemur -36.6871 -8.22146 14.9924
rtibia 48.7139
rfoot -16.8139 -15.5534
rtoes -10.001
lfemur -23.874 4.53354 -12.2314
ltibia 39.233
lfoot -18.5701 21.5796
ltoes 15.9097
221
root 23.2921 17.794 -0.94393 -146.867 -77.912 156.998
lowerback 16.0716 -0.842471 -2.10689
upperback 7.25972 -1.93722 -1.73922
thorax -1.29436 -1.17936 -0.303273
lowerneck -5.03351 14.3558 9.10602
upperneck -0.13898 19.3457 -18.2383
head 3.51426 9.32627 -5.6705
rclavicle -7.55382e-015 2.93207e-014
rhumerus -39.322 -1.42136 -82.4828
rradius 67.8561
rwrist 6.14497
rhand -17.0761 26.0769
rfingers 7.12502
rthumb 9.1619 -3.70404
lclavicle -7.55382e-015 2.93207e-014
lhumerus -2.9635 5.43154 80.6171
lradius 100.753
lwrist -34.2393
lhand -24.5068 48.131
lfingers 7.12502
lthumb 1.98792 78.1015
rfemur -36.5104 -8.45719 15.3668
rtibia 49.3075
rfoot -17.6764 -14.8055
rtoes -6.61651
lfemur -23.9692 4.5739 -12.0732
ltibia 40.3329
lfoot -18.3998 21.8522
ltoes 17.4934
